<?xml version="1.0" encoding="UTF-8" standalone="no"?> <svg width="64" height="64" viewBox="0 0 64 64" fill="none" xmlns="http://www.w3.org/2000/svg">
<path d="M32.0001 57.2899C26.6794 57.291 21.3997 56.3603 16.4001 54.5399C14.747 53.9194 13.3234 52.8078 12.3205 51.3544C11.3177 49.9011 10.7836 48.1757 10.7901 46.4099V30.1699C10.7901 29.7721 10.9481 29.3906 11.2294 29.1093C11.5107 28.828 11.8923 28.6699 12.2901 28.6699C12.6879 28.6699 13.0695 28.828 13.3508 29.1093C13.6321 29.3906 13.7901 29.7721 13.7901 30.1699V46.4099C13.7827 47.5607 14.1274 48.6861 14.778 49.6353C15.4287 50.5845 16.3541 51.3119 17.4301 51.7199C26.8441 55.13 37.1561 55.13 46.5701 51.7199C47.6461 51.3119 48.5715 50.5845 49.2222 49.6353C49.8728 48.6861 50.2175 47.5607 50.2101 46.4099V30.1699C50.2101 29.7721 50.3681 29.3906 50.6494 29.1093C50.9307 28.828 51.3123 28.6699 51.7101 28.6699C52.1079 28.6699 52.4895 28.828 52.7708 29.1093C53.0521 29.3906 53.2101 29.7721 53.2101 30.1699V46.4099C53.2166 48.1757 52.6825 49.9011 51.6797 51.3544C50.6768 52.8078 49.2532 53.9194 47.6001 54.5399C42.6005 56.3603 37.3208 57.291 32.0001 57.2899V57.2899Z" fill="#333333"/>
<path d="M61.5001 23.7096C61.5044 22.6823 61.2161 21.6749 60.6689 20.8054C60.1217 19.9359 59.3382 19.2402 58.4101 18.7996L34.4101 7.24963C33.6741 6.89444 32.8674 6.70996 32.0501 6.70996C31.2329 6.70996 30.4262 6.89444 29.6901 7.24963L5.59012 18.7996C4.66599 19.2448 3.88625 19.9418 3.34055 20.8103C2.79486 21.6789 2.50537 22.6839 2.50537 23.7096C2.50537 24.7354 2.79486 25.7404 3.34055 26.6089C3.88625 27.4775 4.66599 28.1745 5.59012 28.6196L29.6401 40.1696C30.3762 40.5248 31.1829 40.7093 32.0001 40.7093C32.8174 40.7093 33.6241 40.5248 34.3601 40.1696L58.3601 28.6196L58.4501 28.5696V39.2096C58.4501 39.6075 58.6082 39.989 58.8895 40.2703C59.1708 40.5516 59.5523 40.7096 59.9501 40.7096C60.3479 40.7096 60.7295 40.5516 61.0108 40.2703C61.2921 39.989 61.4501 39.6075 61.4501 39.2096V23.7096H61.5001ZM57.1201 25.9096L33.0601 37.4696C32.7291 37.6277 32.3669 37.7097 32.0001 37.7097C31.6333 37.7097 31.2711 37.6277 30.9401 37.4696L6.88012 25.9096C6.46543 25.7107 6.1154 25.3986 5.87039 25.0094C5.62539 24.6201 5.4954 24.1696 5.4954 23.7096C5.4954 23.2497 5.62539 22.7991 5.87039 22.4099C6.1154 22.0206 6.46543 21.7086 6.88012 21.5096L30.9401 9.99963C31.2711 9.84158 31.6333 9.75954 32.0001 9.75954C32.3669 9.75954 32.7291 9.84158 33.0601 9.99963L57.1201 21.5096C57.5348 21.7086 57.8849 22.0206 58.1299 22.4099C58.3749 22.7991 58.5048 23.2497 58.5048 23.7096C58.5048 24.1696 58.3749 24.6201 58.1299 25.0094C57.8849 25.3986 57.5348 25.7107 57.1201 25.9096Z" fill="#FF1D25"/>
</svg>
