<?xml version="1.0" encoding="UTF-8" standalone="no"?> <svg width="64" height="64" viewBox="0 0 64 64" fill="none" xmlns="http://www.w3.org/2000/svg">
<path d="M51.7099 28.6701C51.3172 28.6701 50.9401 28.824 50.6597 29.0988C50.3792 29.3737 50.2177 29.7475 50.2099 30.1401H13.7899C13.7899 29.7423 13.6318 29.3608 13.3505 29.0795C13.0692 28.7982 12.6877 28.6401 12.2899 28.6401C11.892 28.6401 11.5105 28.7982 11.2292 29.0795C10.9479 29.3608 10.7899 29.7423 10.7899 30.1401V46.4101C10.7834 48.1759 11.3174 49.9013 12.3203 51.3546C13.3231 52.808 14.7467 53.9196 16.3999 54.5401C26.4766 58.207 37.5231 58.207 47.5999 54.5401C49.253 53.9196 50.6766 52.808 51.6794 51.3546C52.6823 49.9013 53.2163 48.1759 53.2099 46.4101V30.1701C53.2099 29.7723 53.0518 29.3908 52.7705 29.1095C52.4892 28.8282 52.1077 28.6701 51.7099 28.6701V28.6701Z" fill="#40596B"/>
<path d="M61.4999 23.7101C61.5042 22.6828 61.2159 21.6754 60.6687 20.8059C60.1215 19.9364 59.338 19.2407 58.4099 18.8001L34.4099 7.25012C33.6738 6.89492 32.8671 6.71045 32.0499 6.71045C31.2326 6.71045 30.4259 6.89492 29.6899 7.25012L5.58988 18.8001C4.66574 19.2453 3.886 19.9422 3.34031 20.8108C2.79462 21.6794 2.50513 22.6843 2.50513 23.7101C2.50513 24.7359 2.79462 25.7408 3.34031 26.6094C3.886 27.478 4.66574 28.1749 5.58988 28.6201L29.6399 40.1701C30.3759 40.5253 31.1826 40.7098 31.9999 40.7098C32.8171 40.7098 33.6238 40.5253 34.3599 40.1701L58.3599 28.6201L58.4499 28.5701V39.2101C58.4499 39.6079 58.6079 39.9895 58.8892 40.2708C59.1705 40.5521 59.5521 40.7101 59.9499 40.7101C60.3477 40.7101 60.7292 40.5521 61.0105 40.2708C61.2918 39.9895 61.4499 39.6079 61.4499 39.2101V23.7101H61.4999Z" fill="#0099D6"/>
<path d="M61.4999 23.7101C61.5042 22.6828 61.2159 21.6754 60.6687 20.8059C60.1215 19.9364 59.338 19.2407 58.4099 18.8001L34.4099 7.25012C33.6738 6.89492 32.8671 6.71045 32.0499 6.71045C31.2326 6.71045 30.4259 6.89492 29.6899 7.25012L5.58988 18.8001C4.66574 19.2453 3.886 19.9422 3.34031 20.8108C2.79462 21.6794 2.50513 22.6843 2.50513 23.7101C2.50513 24.7359 2.79462 25.7408 3.34031 26.6094C3.886 27.478 4.66574 28.1749 5.58988 28.6201L10.7899 31.1201V46.4101C10.7834 48.1759 11.3174 49.9013 12.3203 51.3546C13.3232 52.808 14.7468 53.9196 16.3999 54.5401C26.4767 58.207 37.5231 58.207 47.5999 54.5401C49.253 53.9196 50.6766 52.808 51.6795 51.3546C52.6823 49.9013 53.2164 48.1759 53.2099 46.4101V31.1201L58.4099 28.6201L58.4999 28.5701V39.2101C58.4999 39.6079 58.6579 39.9895 58.9392 40.2708C59.2205 40.5521 59.6021 40.7101 59.9999 40.7101C60.3977 40.7101 60.7792 40.5521 61.0605 40.2708C61.3418 39.9895 61.4999 39.6079 61.4999 39.2101V23.7101ZM50.2099 46.4101C50.2173 47.5609 49.8726 48.6863 49.2219 49.6355C48.5713 50.5847 47.6459 51.3121 46.5699 51.7201C37.1558 55.1302 26.8439 55.1302 17.4299 51.7201C16.3539 51.3121 15.4285 50.5847 14.7778 49.6355C14.1272 48.6863 13.7824 47.5609 13.7899 46.4101V32.5601L29.6399 40.1701C30.3759 40.5253 31.1826 40.7098 31.9999 40.7098C32.8171 40.7098 33.6238 40.5253 34.3599 40.1701L50.2099 32.5601V46.4101ZM57.1199 25.9101L33.0599 37.4701C32.7289 37.6282 32.3667 37.7102 31.9999 37.7102C31.6331 37.7102 31.2709 37.6282 30.9399 37.4701L6.87988 25.9101C6.46518 25.7112 6.11515 25.3991 5.87015 25.0099C5.62515 24.6206 5.49515 24.1701 5.49515 23.7101C5.49515 23.2502 5.62515 22.7996 5.87015 22.4104C6.11515 22.0211 6.46518 21.709 6.87988 21.5101L30.9399 10.0001C31.2709 9.84206 31.6331 9.76003 31.9999 9.76003C32.3667 9.76003 32.7289 9.84206 33.0599 10.0001L57.1199 21.5101C57.5346 21.709 57.8846 22.0211 58.1296 22.4104C58.3746 22.7996 58.5046 23.2502 58.5046 23.7101C58.5046 24.1701 58.3746 24.6206 58.1296 25.0099C57.8846 25.3991 57.5346 25.7112 57.1199 25.9101V25.9101Z" fill="black"/>
</svg>
