<?xml version="1.0" encoding="UTF-8" standalone="no"?> <svg width="64" height="64" viewBox="0 0 64 64" fill="none" xmlns="http://www.w3.org/2000/svg">
<path d="M61.5 23.7101C61.5043 22.6828 61.216 21.6754 60.6688 20.8059C60.1216 19.9364 59.3381 19.2407 58.41 18.8001L34.41 7.25012C33.674 6.89492 32.8673 6.71045 32.05 6.71045C31.2327 6.71045 30.426 6.89492 29.69 7.25012L5.59 18.8001C4.66586 19.2453 3.88612 19.9422 3.34043 20.8108C2.79474 21.6794 2.50525 22.6843 2.50525 23.7101C2.50525 24.7359 2.79474 25.7408 3.34043 26.6094C3.88612 27.478 4.66586 28.1749 5.59 28.6201L10.79 31.1201V46.4101C10.7835 48.1759 11.3176 49.9013 12.3204 51.3546C13.3233 52.808 14.7469 53.9196 16.4 54.5401C26.4768 58.207 37.5232 58.207 47.6 54.5401C49.2531 53.9196 50.6767 52.808 51.6796 51.3546C52.6824 49.9013 53.2165 48.1759 53.21 46.4101V31.1201L58.41 28.6201L58.5 28.5701V39.2101C58.5 39.6079 58.658 39.9895 58.9393 40.2708C59.2206 40.5521 59.6022 40.7101 60 40.7101C60.3978 40.7101 60.7794 40.5521 61.0607 40.2708C61.342 39.9895 61.5 39.6079 61.5 39.2101V23.7101ZM50.21 46.4101C50.2174 47.5609 49.8727 48.6863 49.2221 49.6355C48.5714 50.5847 47.646 51.3121 46.57 51.7201C37.156 55.1302 26.844 55.1302 17.43 51.7201C16.354 51.3121 15.4286 50.5847 14.7779 49.6355C14.1273 48.6863 13.7826 47.5609 13.79 46.4101V32.5601L29.64 40.1701C30.376 40.5253 31.1827 40.7098 32 40.7098C32.8173 40.7098 33.624 40.5253 34.36 40.1701L50.21 32.5601V46.4101ZM57.12 25.9101L33.06 37.4701C32.729 37.6282 32.3668 37.7102 32 37.7102C31.6332 37.7102 31.271 37.6282 30.94 37.4701L6.88 25.9101C6.4653 25.7112 6.11527 25.3991 5.87027 25.0099C5.62527 24.6206 5.49527 24.1701 5.49527 23.7101C5.49527 23.2502 5.62527 22.7996 5.87027 22.4104C6.11527 22.0211 6.4653 21.709 6.88 21.5101L30.94 10.0001C31.271 9.84206 31.6332 9.76003 32 9.76003C32.3668 9.76003 32.729 9.84206 33.06 10.0001L57.12 21.5101C57.5347 21.709 57.8847 22.0211 58.1297 22.4104C58.3747 22.7996 58.5047 23.2502 58.5047 23.7101C58.5047 24.1701 58.3747 24.6206 58.1297 25.0099C57.8847 25.3991 57.5347 25.7112 57.12 25.9101V25.9101Z" fill="black"/>
</svg>
